<?xml version="1.0" encoding="UTF-8" standalone="no"?>
<svg
   xmlns:dc="http://purl.org/dc/elements/1.1/"
   xmlns:cc="http://creativecommons.org/ns#"
   xmlns:rdf="http://www.w3.org/1999/02/22-rdf-syntax-ns#"
   xmlns:svg="http://www.w3.org/2000/svg"
   xmlns="http://www.w3.org/2000/svg"
   viewBox="0 0 302.5 48.594269"
   height="48.594269"
   width="302.5"
   xml:space="preserve"
   id="svg2"
   version="1.1"><metadata
     id="metadata8"><rdf:RDF><cc:Work
         rdf:about=""><dc:format>image/svg+xml</dc:format><dc:type
           rdf:resource="http://purl.org/dc/dcmitype/StillImage" /></cc:Work></rdf:RDF></metadata><defs
     id="defs6"><clipPath
       id="clipPath18"
       clipPathUnits="userSpaceOnUse"><path
         id="path16"
         d="M 0,36.446 H 226.875 V 0 H 0 Z" /></clipPath></defs><g
     transform="matrix(1.3333333,0,0,-1.3333333,0,48.594267)"
     id="g10"><g
       id="g12"><g
         clip-path="url(#clipPath18)"
         id="g14"><g
           transform="translate(18.1589,28.5921)"
           id="g20"><path
             id="path22"
             style="fill:#ffffff;fill-opacity:1;fill-rule:nonzero;stroke:none"
             d="m 0,0 c -0.976,0.893 -2.227,1.345 -3.717,1.345 h -14.442 v -4.369 h 14.442 c 0.168,0 0.477,-0.058 0.658,-0.448 0.096,-0.211 0.145,-0.419 0.145,-0.62 0,-0.202 -0.049,-0.41 -0.145,-0.619 -0.18,-0.391 -0.49,-0.449 -0.658,-0.449 h -14.442 v -4.369 h 14.442 c 1.491,0 2.742,0.452 3.717,1.345 0.967,0.885 1.456,2.262 1.456,4.092 0,1.83 -0.49,3.206 -1.456,4.092" /></g><g
           transform="translate(18.1589,15.9974)"
           id="g24"><path
             id="path26"
             style="fill:#ffffff;fill-opacity:1;fill-rule:nonzero;stroke:none"
             d="m 0,0 c -0.976,0.893 -2.226,1.345 -3.717,1.345 h -14.442 v -4.369 h 14.442 c 0.168,0 0.477,-0.059 0.658,-0.449 0.096,-0.209 0.145,-0.418 0.145,-0.619 0,-0.202 -0.049,-0.41 -0.145,-0.619 -0.18,-0.391 -0.49,-0.449 -0.658,-0.449 h -14.442 v -4.37 h 14.442 c 1.491,0 2.742,0.453 3.717,1.346 0.967,0.885 1.456,2.262 1.456,4.092 C 1.456,-2.263 0.966,-0.886 0,0" /></g><g
           transform="translate(50.4528,10.0142)"
           id="g28"><path
             id="path30"
             style="fill:#ffffff;fill-opacity:1;fill-rule:nonzero;stroke:none"
             d="M 0,0 C 0,-0.756 -0.095,-1.463 -0.284,-2.118 -0.473,-2.774 -0.775,-3.342 -1.192,-3.82 -1.608,-4.299 -2.144,-4.671 -2.799,-4.936 -3.456,-5.201 -4.262,-5.333 -5.22,-5.333 h -2.951 -2.951 c -0.959,0 -1.765,0.132 -2.421,0.397 -0.656,0.265 -1.192,0.637 -1.608,1.116 -0.416,0.478 -0.718,1.046 -0.908,1.702 -0.189,0.655 -0.283,1.362 -0.283,2.118 v 16.377 c 0,0.756 0.094,1.462 0.283,2.118 0.19,0.655 0.492,1.223 0.908,1.702 0.416,0.479 0.958,0.851 1.627,1.116 0.668,0.265 1.481,0.397 2.44,0.397 h 5.826 c 0.958,0 1.771,-0.132 2.44,-0.397 0.667,-0.265 1.21,-0.637 1.626,-1.116 0.417,-0.479 0.719,-1.047 0.908,-1.702 C -0.095,17.839 0,17.133 0,16.377 Z m 2.016,23.929 c -0.812,0.858 -1.861,1.488 -3.12,1.872 -1.286,0.391 -2.85,0.59 -4.646,0.59 h -4.842 c -1.772,0 -3.315,-0.199 -4.588,-0.59 -1.248,-0.384 -2.299,-1.014 -3.123,-1.874 -0.826,-0.862 -1.447,-2.003 -1.846,-3.391 -0.405,-1.412 -0.61,-3.168 -0.61,-5.218 V 1.059 c 0,-1.975 0.205,-3.693 0.61,-5.104 0.399,-1.389 1.02,-2.537 1.848,-3.412 0.825,-0.873 1.877,-1.523 3.126,-1.931 h 0.001 c 1.268,-0.415 2.81,-0.626 4.582,-0.626 h 4.842 c 1.797,0 3.358,0.211 4.64,0.626 1.26,0.408 2.311,1.057 3.124,1.929 0.815,0.875 1.424,2.022 1.81,3.411 0.394,1.414 0.593,3.132 0.593,5.107 v 14.259 c 0,2.05 -0.199,3.806 -0.593,5.221 -0.386,1.387 -0.995,2.528 -1.808,3.39" /></g><g
           transform="translate(44.4692,12.3027)"
           id="g32"><path
             id="path34"
             style="fill:#ffffff;fill-opacity:1;fill-rule:nonzero;stroke:none"
             d="m 0,0 c 0,-0.346 -0.053,-0.621 -0.163,-0.84 -0.1,-0.201 -0.332,-0.439 -0.862,-0.439 H -3.35 c -0.532,0 -0.763,0.239 -0.863,0.439 -0.109,0.218 -0.162,0.492 -0.162,0.84 v 11.8 c 0,0.347 0.053,0.622 0.163,0.84 0.1,0.201 0.331,0.439 0.862,0.439 h 2.325 c 0.53,0 0.761,-0.238 0.862,-0.438 C -0.053,12.421 0,12.146 0,11.8 Z M 4.167,14.813 C 4.046,15.37 3.828,15.854 3.514,16.266 3.199,16.677 2.769,16.998 2.225,17.228 1.68,17.458 0.984,17.573 0.137,17.573 h -2.325 -2.324 c -0.848,0 -1.543,-0.115 -2.088,-0.345 -0.544,-0.23 -0.975,-0.551 -1.289,-0.962 -0.315,-0.412 -0.533,-0.896 -0.654,-1.453 -0.121,-0.556 -0.181,-1.15 -0.181,-1.779 V -1.234 c 0,-0.848 0.06,-1.556 0.181,-2.124 0.121,-0.57 0.333,-1.035 0.636,-1.398 0.302,-0.363 0.726,-0.624 1.271,-0.781 0.545,-0.157 1.24,-0.236 2.088,-0.236 h 4.721 c 0.847,0 1.543,0.079 2.088,0.236 0.545,0.157 0.968,0.418 1.271,0.781 0.302,0.363 0.514,0.828 0.635,1.398 0.121,0.568 0.182,1.276 0.182,2.124 v 14.268 c 0,0.629 -0.061,1.223 -0.182,1.779" /></g><g
           transform="translate(83.2293,30.0131)"
           id="g36"><path
             id="path38"
             style="fill:#ffffff;fill-opacity:1;fill-rule:evenodd;stroke:none"
             d="m 0,0 h -11.52 v -30.013 h 4.332 V -4.331 H 0 Z" /></g><g
           transform="translate(58.053,30.0131)"
           id="g40"><path
             id="path42"
             style="fill:#ffffff;fill-opacity:1;fill-rule:evenodd;stroke:none"
             d="m 0,0 v -4.331 h 7.263 v -25.682 h 4.333 V 0 Z" /></g><path
           id="path44"
           style="fill:#ffffff;fill-opacity:1;fill-rule:evenodd;stroke:none"
           d="m 58.053,32.074 h 25.176 v 4.331 H 58.053 Z" /><g
           transform="translate(25.1841,7.236)"
           id="g46"><path
             id="path48"
             style="fill:#ffffff;fill-opacity:1;fill-rule:nonzero;stroke:none"
             d="m 0,0 c 0.597,1.438 0.9,3.009 0.9,4.669 0,1.082 -0.219,2.143 -0.652,3.153 -0.442,1.029 -1.002,2.012 -1.664,2.92 l -0.154,0.212 0.16,0.207 c 0.659,0.855 1.216,1.82 1.656,2.872 0.434,1.036 0.654,2.123 0.654,3.231 0,1.659 -0.303,3.231 -0.9,4.67 -0.598,1.438 -1.433,2.712 -2.481,3.785 -1.047,1.071 -2.295,1.923 -3.709,2.533 -1.413,0.608 -2.945,0.917 -4.552,0.917 h -14.442 v -4.407 h 14.442 c 1.1,0 2.106,-0.187 2.99,-0.557 0.886,-0.37 1.657,-0.893 2.293,-1.555 0.636,-0.662 1.132,-1.466 1.475,-2.39 0.341,-0.918 0.514,-1.926 0.514,-2.996 0,-1.521 -0.323,-2.817 -0.96,-3.851 -0.554,-0.9 -1.327,-1.726 -2.303,-2.461 0.976,-0.715 1.75,-1.531 2.303,-2.431 0.637,-1.035 0.96,-2.33 0.96,-3.852 0,-1.07 -0.173,-2.078 -0.514,-2.996 -0.343,-0.924 -0.839,-1.728 -1.475,-2.39 -0.635,-0.661 -1.406,-1.185 -2.293,-1.555 -0.883,-0.369 -1.889,-0.556 -2.99,-0.556 h -14.442 v -4.408 h 14.442 c 1.608,0 3.14,0.309 4.552,0.917 1.414,0.609 2.662,1.462 3.709,2.533 C -1.433,-2.714 -0.598,-1.44 0,0" /></g><g
           transform="translate(151.9265)"
           id="g50"><path
             id="path52"
             style="fill:#ffffff;fill-opacity:1;fill-rule:nonzero;stroke:none"
             d="m 0,0 -10.782,18.949 h 1.85 c 0.729,0 1.419,0.143 2.052,0.424 0.635,0.282 1.188,0.674 1.645,1.167 0.458,0.493 0.823,1.085 1.084,1.76 0.26,0.675 0.393,1.415 0.393,2.2 0,1.829 -0.49,3.206 -1.457,4.092 -0.976,0.892 -2.226,1.345 -3.717,1.345 H -23.374 V 0 h 4.333 v 25.568 h 9.92 c 0.306,0 0.562,-0.116 0.743,-0.336 0.166,-0.203 0.249,-0.437 0.249,-0.694 0,-0.253 -0.08,-0.488 -0.239,-0.701 -0.181,-0.241 -0.441,-0.367 -0.753,-0.367 h -7.86 V 0 h 4.333 V 13.928 L -4.606,0 Z" /></g><g
           transform="translate(157.4553)"
           id="g54"><path
             id="path56"
             style="fill:#ffffff;fill-opacity:1;fill-rule:nonzero;stroke:none"
             d="m 0,0 0.572,1.615 -7.58,13.562 0.242,0.183 c 1.209,0.919 2.179,2.154 2.883,3.671 0.707,1.521 1.065,3.361 1.065,5.469 0,1.659 -0.303,3.23 -0.901,4.67 -0.598,1.439 -1.433,2.712 -2.481,3.785 -1.046,1.071 -2.294,1.923 -3.708,2.533 -1.413,0.608 -2.945,0.917 -4.553,0.917 h -14.442 v -4.407 h 14.442 c 1.1,0 2.106,-0.187 2.991,-0.557 0.886,-0.37 1.657,-0.894 2.293,-1.555 0.635,-0.663 1.132,-1.467 1.475,-2.39 0.34,-0.918 0.513,-1.927 0.513,-2.996 0,-1.047 -0.173,-2.025 -0.515,-2.906 -0.34,-0.877 -0.792,-1.655 -1.345,-2.312 -0.555,-0.66 -1.206,-1.197 -1.935,-1.594 -0.564,-0.308 -1.147,-0.515 -1.737,-0.619 L -2.872,0 Z" /></g><g
           transform="translate(188.1114,31.73)"
           id="g58"><path
             id="path60"
             style="fill:#ffffff;fill-opacity:1;fill-rule:nonzero;stroke:none"
             d="M 0,0 C 0.463,-0.247 0.749,-0.546 0.852,-0.889 L 11.659,-31.73 h 4.289 L 4.424,0.785 C 4.257,1.288 4.01,1.773 3.691,2.235 3.372,2.696 2.975,3.116 2.512,3.484 2.054,3.848 1.504,4.14 0.878,4.353 0.248,4.567 -0.472,4.675 -1.261,4.675 -2.074,4.675 -2.785,4.567 -3.375,4.355 -3.963,4.144 -4.481,3.853 -4.914,3.49 -5.355,3.121 -5.741,2.699 -6.062,2.235 -6.392,1.758 -6.697,1.255 -6.966,0.74 l -1.445,-2.889 -1.448,2.894 c -0.246,0.518 -0.536,1.017 -0.863,1.49 -0.319,0.461 -0.711,0.882 -1.163,1.252 -0.447,0.364 -0.973,0.656 -1.562,0.868 -0.59,0.212 -1.301,0.32 -2.114,0.32 -0.814,0 -1.539,-0.108 -2.155,-0.321 -0.615,-0.213 -1.159,-0.506 -1.618,-0.87 -0.463,-0.368 -0.852,-0.786 -1.156,-1.244 -0.312,-0.467 -0.567,-0.959 -0.759,-1.463 l -10.926,-30.828 0.939,-1.679 h 2.755 l 10.813,30.856 c 0.097,0.328 0.384,0.627 0.845,0.874 0.917,0.488 1.824,0.43 2.543,-0.011 0.391,-0.242 0.654,-0.527 0.784,-0.848 l 5.085,-13.617 5.082,13.609 c 0.132,0.328 0.395,0.614 0.787,0.856 C -1.824,0.43 -0.916,0.488 0,0" /></g><g
           transform="translate(179.7005,0.6461)"
           id="g62"><path
             id="path64"
             style="fill:#ffffff;fill-opacity:1;fill-rule:nonzero;stroke:none"
             d="m 0,0 7.166,19.106 6.703,-19.752 h 4.102 L 7.765,29.036 C 7.742,29.102 7.665,29.174 7.546,29.242 7.254,29.405 7.05,29.409 6.781,29.247 6.702,29.199 6.602,29.125 6.573,29.039 L 0,10.915 -6.57,29.03 c -0.032,0.095 -0.132,0.169 -0.211,0.217 -0.27,0.163 -0.475,0.158 -0.764,-0.005 -0.12,-0.068 -0.198,-0.139 -0.219,-0.204 L -17.971,-0.646 h 4.289 l 6.511,19.766 z" /></g><g
           transform="translate(216.5652,36.4046)"
           id="g66"><path
             id="path68"
             style="fill:#ffffff;fill-opacity:1;fill-rule:nonzero;stroke:none"
             d="m 0,0 v -11.413 c 0,-0.362 -0.066,-0.663 -0.197,-0.892 -0.115,-0.201 -0.36,-0.441 -0.871,-0.441 h -2.421 c -0.555,0 -0.796,0.249 -0.9,0.458 -0.113,0.226 -0.169,0.512 -0.169,0.875 V 0 h -4.181 v -12.699 c 0,-0.856 0.061,-1.576 0.182,-2.14 0.113,-0.534 0.311,-0.973 0.588,-1.305 0.269,-0.322 0.657,-0.558 1.153,-0.702 0.532,-0.153 1.232,-0.232 2.079,-0.232 H 0.18 c 0.847,0 1.546,0.079 2.078,0.232 0.496,0.144 0.884,0.38 1.153,0.702 0.277,0.332 0.474,0.771 0.589,1.305 0.12,0.566 0.181,1.286 0.181,2.14 L 4.181,0 Z" /></g><g
           transform="translate(222.8069,36.4457)"
           id="g70"><path
             id="path72"
             style="fill:#ffffff;fill-opacity:1;fill-rule:nonzero;stroke:none"
             d="m 0,0 v -13.456 c 0,-0.785 -0.1,-1.53 -0.298,-2.215 -0.202,-0.702 -0.532,-1.319 -0.979,-1.834 -0.45,-0.519 -1.036,-0.926 -1.741,-1.21 -0.694,-0.281 -1.553,-0.423 -2.552,-0.423 h -1.882 v -17.267 h 4.332 v 13.14 l 0.284,0.054 c 2.387,0.458 4.149,1.551 5.238,3.249 1.105,1.725 1.666,4.27 1.666,7.565 V 0 Z" /></g><g
           transform="translate(211.3358,17.2667)"
           id="g74"><path
             id="path76"
             style="fill:#ffffff;fill-opacity:1;fill-rule:nonzero;stroke:none"
             d="m 0,0 c -1,0 -1.858,0.142 -2.552,0.423 -0.704,0.284 -1.29,0.691 -1.74,1.21 C -4.74,2.148 -5.07,2.765 -5.272,3.468 -5.47,4.152 -5.57,4.897 -5.57,5.682 V 19.138 H -9.637 V 6.741 c 0,-3.294 0.572,-5.838 1.702,-7.562 1.113,-1.7 2.888,-2.794 5.277,-3.252 l 0.284,-0.055 V -17.267 H 1.958 L 1.958,0 Z" /></g><g
           transform="translate(114.6891,32.5151)"
           id="g78"><path
             id="path80"
             style="fill:#ffffff;fill-opacity:1;fill-rule:nonzero;stroke:none"
             d="M 0,0 C -0.189,0.494 -0.444,0.986 -0.756,1.455 -1.062,1.914 -1.451,2.332 -1.912,2.699 -2.371,3.063 -2.916,3.356 -3.531,3.569 -4.146,3.782 -4.872,3.89 -5.686,3.89 -6.501,3.89 -7.233,3.782 -7.862,3.568 -8.489,3.355 -9.039,3.063 -9.497,2.699 -9.959,2.331 -10.348,1.913 -10.653,1.455 -10.962,0.991 -11.203,0.504 -11.369,0.006 l -11.526,-32.521 h 4.289 l 10.851,30.857 c 0.096,0.321 0.359,0.617 0.775,0.865 0.741,0.439 1.642,0.495 2.556,0.008 0.461,-0.247 0.748,-0.546 0.851,-0.889 L 6.199,-28.788 H -9.465 l -1.204,-3.727 h 22.193 z" /></g><g
           transform="translate(109.9492,29.7953)"
           id="g82"><path
             id="path84"
             style="fill:#ffffff;fill-opacity:1;fill-rule:nonzero;stroke:none"
             d="m 0,0 c -0.051,0.151 -0.177,0.283 -0.378,0.397 -0.202,0.114 -0.391,0.17 -0.568,0.17 -0.176,0 -0.359,-0.056 -0.548,-0.17 C -1.683,0.283 -1.803,0.151 -1.854,0 l -10.322,-29.795 h 4.577 l 0.171,0.401 3.582,11.09 2.894,9.114 3.629,-11.016 h -5.509 l -1.341,-4.152 H 8.626 Z" /></g></g></g></g></svg>